# xmcd CD database file
# Copyright (C) 1993-1998 Ti Kan
#
# Track frame offsets:
# 150
# 21452
# 42250
# 66910
#
# Disc length: 1176 seconds
# Revision: 0
# Processed by: cddbd v1.4b41PL1 Copyright (c) Steve Scherf et al.
# Submitted via: CDSpectrumPro v3.3.331
#
DISCID=33049604
DTITLE=Jacci McGhee - It Hurts Me [CD Single)
DYEAR=1900
DGENRE=
TTITLE0=sweat me radio version
TTITLE1=no sweat radio version
TTITLE2=album version
TTITLE3=ghetto mix
EXTD=
EXTT0=
EXTT1=
EXTT2=
EXTT3=
PLAYORDER=
